<?xml version="1.0" standalone="no"?><!DOCTYPE svg PUBLIC "-//W3C//DTD SVG 1.1//EN" "http://www.w3.org/Graphics/SVG/1.1/DTD/svg11.dtd"><svg t="1601542255446" class="icon" viewBox="0 0 1024 1024" version="1.1" xmlns="http://www.w3.org/2000/svg" p-id="2721" xmlns:xlink="http://www.w3.org/1999/xlink" width="400" height="400"><defs><style type="text/css"></style></defs><path d="M512 0C227.328 0 0 227.328 0 512s227.328 512 512 512 512-227.328 512-512c0-28.672-18.944-47.616-47.616-47.616-28.672 0-47.616 18.944-47.616 47.616 0 227.328-189.44 417.28-417.28 417.28-227.328 0-417.28-189.44-417.28-417.28 0-227.328 189.44-417.28 417.28-417.28 75.776 0 161.28 18.944 218.112 66.56v9.728l-47.616 56.832c-18.944 18.944 0 56.832 28.672 56.832l218.112 9.728c18.944 0 37.888-28.672 37.888-47.616l-66.56-208.384c-9.728-28.672-47.616-37.888-66.56-9.728l-37.888 56.832C711.168 28.672 616.448 0 512 0z" p-id="2722" fill="#ffffff"></path></svg>